<svg width="122" height="123" viewBox="0 0 122 123" fill="none" xmlns="http://www.w3.org/2000/svg">
<path fill-rule="evenodd" clip-rule="evenodd" d="M60.9436 122.058C94.1385 122.058 121.048 94.8104 121.048 61.1992C121.048 27.5881 94.1385 0.34082 60.9436 0.34082C27.7486 0.34082 0.838821 27.5881 0.838821 61.1992C0.838821 94.8104 27.7486 122.058 60.9436 122.058ZM70.1686 62.4365C76.3594 59.0855 80.56 52.5659 80.56 45.0721C80.56 34.1569 71.648 25.3084 60.6544 25.3084C49.6609 25.3084 40.7488 34.1569 40.7488 45.0721C40.7488 52.7434 45.1508 59.3938 51.5835 62.6692L33.3459 94.086C32.5719 95.4193 33.5339 97.0901 35.0756 97.0901H86.8115C88.3532 97.0901 89.3152 95.4193 88.5412 94.086L70.1686 62.4365Z" fill="#3DA75F"/>
</svg>
