<svg width="570" height="123" viewBox="0 0 570 123" fill="none" xmlns="http://www.w3.org/2000/svg">
    <path fill-rule="evenodd" clip-rule="evenodd" d="M159.918 0.34082C148.32 0.34082 138.918 9.74284 138.918 21.3408V101.058C138.918 112.656 148.32 122.058 159.918 122.058H548.277C559.875 122.058 569.277 112.656 569.277 101.058V21.3408C569.277 9.74284 559.875 0.34082 548.277 0.34082H159.918ZM171.566 72.9414C171.566 74.1133 172.113 74.6992 173.207 74.6992H176.769C177.863 74.6992 178.41 74.1133 178.41 72.9414V56.3242C178.41 55.3867 178.371 54.4492 178.292 53.5117H178.457L190.644 73.0586C191.332 74.1523 192.347 74.6992 193.691 74.6992H196.925C198.019 74.6992 198.566 74.1133 198.566 72.9414V42.8477C198.566 41.6758 198.019 41.0898 196.925 41.0898H193.363C192.269 41.0898 191.722 41.6758 191.722 42.8477V59.1133C191.722 60.0508 191.761 60.9883 191.839 61.9258H191.675L179.722 42.7305C179.035 41.6367 178.019 41.0898 176.675 41.0898H173.207C172.113 41.0898 171.566 41.6758 171.566 42.8477V72.9414ZM209.441 45.0508C206.66 48.2227 205.269 52.5039 205.269 57.8945C205.269 62.2227 206.167 65.832 207.964 68.7227L204.8 72.2383C204.175 72.9258 204.183 73.5586 204.824 74.1367L206.91 76.0352C207.55 76.6133 208.183 76.5508 208.808 75.8477L211.621 72.7305C214.167 74.5742 217.41 75.4961 221.347 75.4961C226.503 75.4961 230.472 73.9102 233.253 70.7383C236.035 67.5664 237.425 63.2852 237.425 57.8945C237.425 53.5664 236.527 49.957 234.73 47.0664L237.894 43.5508C238.519 42.8477 238.511 42.2148 237.871 41.6523L235.785 39.7539C235.144 39.1758 234.511 39.2383 233.886 39.9414L231.074 43.0586C228.527 41.2148 225.285 40.293 221.347 40.293C216.191 40.293 212.222 41.8789 209.441 45.0508ZM213.097 63.0273C212.753 61.543 212.582 59.832 212.582 57.8945C212.582 53.9883 213.277 51.0039 214.667 48.9414C216.074 46.8633 218.3 45.8242 221.347 45.8242C223.691 45.8242 225.55 46.4414 226.925 47.6758L213.097 63.0273ZM221.347 69.9648C219.003 69.9648 217.144 69.3477 215.769 68.1133L229.597 52.7617C229.941 54.2461 230.113 55.957 230.113 57.8945C230.113 61.8008 229.41 64.793 228.003 66.8711C226.613 68.9336 224.394 69.9648 221.347 69.9648ZM242.253 72.9414C242.253 74.1133 242.8 74.6992 243.894 74.6992H247.457C248.55 74.6992 249.097 74.1133 249.097 72.9414V64.2227L253.035 59.793L261.66 73.3164C262.253 74.2383 262.957 74.6992 263.769 74.6992H268.152C269.605 74.6992 269.902 74.0273 269.042 72.6836L257.628 54.7773L268.292 43.1055C269.527 41.7617 269.23 41.0898 267.402 41.0898H262.691C262.097 41.0898 261.378 41.5508 260.535 42.4727L249.144 54.9883H248.98C249.058 54.0508 249.097 53.1133 249.097 52.1758V42.8477C249.097 41.6758 248.55 41.0898 247.457 41.0898H243.894C242.8 41.0898 242.253 41.6758 242.253 42.8477V72.9414ZM274.175 72.9414C274.175 74.1133 274.722 74.6992 275.816 74.6992H279.378C280.472 74.6992 281.019 74.1133 281.019 72.9414V64.2227L284.957 59.793L293.582 73.3164C294.175 74.2383 294.878 74.6992 295.691 74.6992H300.074C301.527 74.6992 301.824 74.0273 300.964 72.6836L289.55 54.7773L300.214 43.1055C301.449 41.7617 301.152 41.0898 299.324 41.0898H294.613C294.019 41.0898 293.3 41.5508 292.457 42.4727L281.066 54.9883H280.902C280.98 54.0508 281.019 53.1133 281.019 52.1758V42.8477C281.019 41.6758 280.472 41.0898 279.378 41.0898H275.816C274.722 41.0898 274.175 41.6758 274.175 42.8477V72.9414ZM306.097 72.9414C306.097 74.1133 306.644 74.6992 307.738 74.6992H328.597C329.769 74.6992 330.355 74.1914 330.355 73.1758V70.4102C330.355 69.3945 329.769 68.8867 328.597 68.8867H312.941V60.168H326.605C327.777 60.168 328.363 59.6602 328.363 58.6445V55.8789C328.363 54.8633 327.777 54.3555 326.605 54.3555H312.941V46.9023H327.847C329.019 46.9023 329.605 46.3945 329.605 45.3789V42.6133C329.605 41.5977 329.019 41.0898 327.847 41.0898H307.738C306.644 41.0898 306.097 41.6758 306.097 42.8477V72.9414ZM336.097 72.9414C336.097 74.1133 336.644 74.6992 337.738 74.6992H356.605C357.777 74.6992 358.363 74.1914 358.363 73.1758V70.4102C358.363 69.3945 357.777 68.8867 356.605 68.8867H342.941V42.8477C342.941 41.6758 342.472 41.0898 341.535 41.0898H337.738C336.644 41.0898 336.097 41.6758 336.097 42.8477V72.9414ZM363.332 72.9414C363.332 74.1133 363.878 74.6992 364.972 74.6992H368.535C369.628 74.6992 370.175 74.1133 370.175 72.9414V60.1211H382.785V72.9414C382.785 74.1133 383.332 74.6992 384.425 74.6992H387.988C389.082 74.6992 389.628 74.1133 389.628 72.9414V42.8477C389.628 41.6758 389.082 41.0898 387.988 41.0898H384.425C383.332 41.0898 382.785 41.6758 382.785 42.8477V54.3086H370.175V42.8477C370.175 41.6758 369.628 41.0898 368.535 41.0898H364.972C363.878 41.0898 363.332 41.6758 363.332 42.8477V72.9414ZM397.128 42.3789V60.707C397.128 66.1758 398.285 70.0117 400.597 72.2148C402.91 74.4023 406.058 75.4961 410.042 75.4961C414.027 75.4961 417.175 74.4023 419.488 72.2148C421.8 70.0117 422.957 66.1758 422.957 60.707V42.3789C422.957 41.5195 422.41 41.0898 421.316 41.0898H417.753C416.66 41.0898 416.113 41.5195 416.113 42.3789V60.4727C416.113 64.6914 415.488 67.332 414.238 68.3945C413.003 69.4414 411.605 69.9648 410.042 69.9648C408.48 69.9648 407.074 69.4414 405.824 68.3945C404.589 67.332 403.972 64.6914 403.972 60.4727V42.3789C403.972 41.5195 403.425 41.0898 402.332 41.0898H398.769C397.675 41.0898 397.128 41.5195 397.128 42.3789ZM430.457 72.9414C430.457 74.1133 431.003 74.6992 432.097 74.6992H450.964C452.136 74.6992 452.722 74.1914 452.722 73.1758V70.4102C452.722 69.3945 452.136 68.8867 450.964 68.8867H437.3V42.8477C437.3 41.6758 436.832 41.0898 435.894 41.0898H432.097C431.003 41.0898 430.457 41.6758 430.457 42.8477V72.9414ZM457.691 72.9414C457.691 74.1133 458.238 74.6992 459.332 74.6992H478.199C479.371 74.6992 479.957 74.1914 479.957 73.1758V70.4102C479.957 69.3945 479.371 68.8867 478.199 68.8867H464.535V42.8477C464.535 41.6758 464.066 41.0898 463.128 41.0898H459.332C458.238 41.0898 457.691 41.6758 457.691 42.8477V72.9414ZM484.925 72.9414C484.925 74.1133 485.472 74.6992 486.566 74.6992H507.425C508.597 74.6992 509.183 74.1914 509.183 73.1758V70.4102C509.183 69.3945 508.597 68.8867 507.425 68.8867H491.769V60.168H505.433C506.605 60.168 507.191 59.6602 507.191 58.6445V55.8789C507.191 54.8633 506.605 54.3555 505.433 54.3555H491.769V46.9023H506.675C507.847 46.9023 508.433 46.3945 508.433 45.3789V42.6133C508.433 41.5977 507.847 41.0898 506.675 41.0898H486.566C485.472 41.0898 484.925 41.6758 484.925 42.8477V72.9414ZM511.972 45.5664C511.972 46.582 512.558 47.0898 513.73 47.0898H522.355V73.4102C522.355 74.2695 522.746 74.6992 523.527 74.6992H528.027C528.808 74.6992 529.199 74.2695 529.199 73.4102V47.0898H537.824C538.996 47.0898 539.582 46.582 539.582 45.5664V42.6133C539.582 41.5977 538.996 41.0898 537.824 41.0898H513.73C512.558 41.0898 511.972 41.5977 511.972 42.6133V45.5664Z" fill="#3DA75F"/>
    <path fill-rule="evenodd" clip-rule="evenodd" d="M60.9436 122.058C94.1385 122.058 121.048 94.8104 121.048 61.1992C121.048 27.5881 94.1385 0.34082 60.9436 0.34082C27.7486 0.34082 0.838821 27.5881 0.838821 61.1992C0.838821 94.8104 27.7486 122.058 60.9436 122.058ZM70.1686 62.4365C76.3594 59.0855 80.56 52.5659 80.56 45.0721C80.56 34.1569 71.648 25.3084 60.6544 25.3084C49.6609 25.3084 40.7488 34.1569 40.7488 45.0721C40.7488 52.7434 45.1508 59.3938 51.5835 62.6692L33.3459 94.086C32.5719 95.4193 33.5339 97.0901 35.0756 97.0901H86.8115C88.3532 97.0901 89.3152 95.4193 88.5412 94.086L70.1686 62.4365Z" fill="#3DA75F"/>
</svg>
