<svg width="562" height="126" viewBox="0 0 562 126" fill="none" xmlns="http://www.w3.org/2000/svg">
<path d="M552.156 2.14117H141.391V123.858H552.156V2.14117Z" fill="#3DA75F"/>
<path d="M128.074 2.14117H9.83783V123.858H128.074V2.14117Z" fill="#3DA75F"/>
<path d="M204.87 45.274V81.4008L180.393 55.1785V80.2338H176.198V44.1071L200.675 70.3294V45.274H204.87ZM220.301 77.9482L217.581 81.2176L214.823 78.9223L217.504 75.7011C215.845 74.0423 214.53 72.1007 213.559 69.8761C212.589 67.6451 212.103 65.2759 212.103 62.7684C212.103 60.2545 212.576 57.8949 213.521 55.6896C214.466 53.4908 215.774 51.562 217.446 49.9032C219.118 48.2508 221.059 46.9521 223.271 46.0069C225.483 45.0618 227.846 44.5893 230.359 44.5893C232.275 44.5893 234.114 44.8657 235.876 45.4186C237.638 45.978 239.258 46.7624 240.737 47.7718L243.138 44.8593L245.896 47.1449L243.456 50.096C245.057 51.7291 246.317 53.6354 247.237 55.815C248.156 57.9881 248.616 60.3059 248.616 62.7684C248.616 65.2759 248.143 67.6322 247.198 69.8375C246.253 72.0364 244.945 73.9652 243.273 75.624C241.608 77.2763 239.672 78.5751 237.467 79.5202C235.268 80.4717 232.899 80.9475 230.359 80.9475C228.495 80.9475 226.714 80.6871 225.017 80.1663C223.326 79.6455 221.754 78.9062 220.301 77.9482ZM220.301 72.316L237.978 51.1087C236.885 50.3564 235.699 49.781 234.42 49.3824C233.14 48.9838 231.787 48.7844 230.359 48.7844C227.794 48.7844 225.483 49.4113 223.425 50.665C221.368 51.9188 219.732 53.6001 218.516 55.7089C217.295 57.8242 216.684 60.1773 216.684 62.7684C216.684 64.6008 217.009 66.3335 217.658 67.9665C218.308 69.5996 219.188 71.0495 220.301 72.316ZM230.359 76.7523C232.925 76.7523 235.243 76.1222 237.313 74.8621C239.383 73.6083 241.023 71.9206 242.231 69.7989C243.434 67.6708 244.035 65.3273 244.035 62.7684C244.035 60.981 243.736 59.2965 243.138 57.7149C242.546 56.1332 241.72 54.722 240.659 53.4811L223.059 74.6113C224.12 75.2864 225.264 75.8104 226.492 76.1833C227.727 76.5627 229.016 76.7523 230.359 76.7523ZM281.01 80.2435H275.619L260.738 58.6889L272.697 45.2836H277.905L266.023 58.6503L281.01 80.2435ZM260.275 80.2435H255.839V45.2836H260.275V80.2435ZM311.312 80.2435H305.911L291.04 58.6889L302.999 45.2836H308.207L296.315 58.6503L311.312 80.2435ZM290.568 80.2435H286.141V45.2836H290.568V80.2435ZM333.686 80.2435H316.443V45.2836H333.686V49.2473H320.869V56.7022H330.967V60.666H320.869V76.2798H333.686V80.2435ZM357.459 80.2435H340.91V45.2836H345.336V76.2798H357.459V80.2435ZM368.637 80.2435H364.21V45.2836H368.637V56.7022H381.068V45.2836H385.494V80.2435H381.068V60.666H368.637V80.2435ZM405.94 80.7064C403.735 80.7064 401.78 80.221 400.076 79.2502C398.366 78.2793 397.026 76.9324 396.055 75.2093C395.084 73.4926 394.598 71.5059 394.598 69.2492V45.2836H399.025V69.0949C399.025 71.4031 399.684 73.2547 401.002 74.6499C402.327 76.0515 403.998 76.7523 406.017 76.7523C408.01 76.7523 409.672 76.058 411.003 74.6692C412.34 73.2869 413.009 71.4802 413.009 69.2492V45.2836H417.281V69.0949C417.281 71.3709 416.796 73.3833 415.825 75.1321C414.854 76.8809 413.52 78.2472 411.823 79.2308C410.125 80.2145 408.165 80.7064 405.94 80.7064ZM442.915 80.2435H426.366V45.2836H430.793V76.2798H442.915V80.2435ZM466.225 80.2435H449.676V45.2836H454.103V76.2798H466.225V80.2435ZM490.229 80.2435H472.986V45.2836H490.229V49.2473H477.412V56.7022H487.51V60.666H477.412V76.2798H490.229V80.2435ZM503.75 49.2473H494.425V45.2836H517.493V49.2473H508.177V80.2435H503.75V49.2473Z" fill="white"/>
<path d="M42.7123 75.6587C49.7717 81.3834 57.7571 84.6856 67.7715 84.6084C72.2926 84.6393 77.4387 83.8215 82.1605 81.2831C89.2354 77.4718 95.7394 72.9043 100.878 66.5932C102.945 64.0626 103.038 60.8068 100.824 58.415C96.0055 53.2216 90.4814 48.7312 84.4133 45.0753C73.4036 38.471 62.1933 38.4942 50.9445 44.5044C46.269 47.0041 42.1182 50.2754 37.9211 53.485C35.2979 56.2933 34.0017 58.307 32.9293 60.6602C32.5795 61.3782 32.4713 62.1901 32.6207 62.9748C33.2225 65.652 34.1251 67.1487 36.2931 70.0728C37.9751 72.3411 40.5057 73.8687 42.7123 75.6587ZM65.3643 48.5549C74.0286 47.9223 80.8334 53.809 81.4506 62.4656C81.983 70.0651 75.6797 77.0937 67.8564 77.6184C59.8286 78.1141 52.8954 72.0605 52.3023 64.0395C51.7468 56.3165 57.8265 49.1104 65.3643 48.5549Z" fill="white"/>
<path d="M66.9932 69.8413C70.8508 69.8799 73.8434 66.9635 73.8666 63.129C73.8819 62.2424 73.7213 61.3615 73.3943 60.5373C73.0672 59.7131 72.58 58.9618 71.9609 58.3269C71.3418 57.692 70.6031 57.1861 69.7873 56.8384C68.9716 56.4907 68.095 56.308 67.2083 56.301C66.3113 56.2794 65.4191 56.4377 64.5844 56.7668C63.7497 57.0959 62.9894 57.5889 62.3486 58.2169C61.7077 58.8448 61.1992 59.5948 60.8532 60.4227C60.5071 61.2505 60.3306 62.1392 60.3339 63.0365C60.3178 63.9222 60.478 64.8023 60.8051 65.6256C61.1321 66.4489 61.6196 67.1989 62.2392 67.8321C62.8588 68.4653 63.598 68.9691 64.414 69.314C65.2299 69.6589 66.1073 69.8382 66.9932 69.8413Z" fill="white"/>
</svg>